# xmcd CD database file
#
# Track frame offsets:
#	150
#	11273
#	36065
#	50333
#	64179
#	92093
#	100996
#	144105
#
# Disc length: 2077 seconds
#
# Revision: 0
# Processed by: cddbd v1.5.2PL0 Copyright (c) Steve Scherf et al.
# Submitted via: CDex 1.51
#
DISCID=5b081b08
DTITLE=McCarthy, Cliff - It Never Stopped Me Before
DYEAR=2005
DGENRE=Jazz
TTITLE0=Song for Jennie
TTITLE1=Black T-Shirt
TTITLE2=Drinking Smoking Christians
TTITLE3=Find it in Yourself
TTITLE4=Vibraphones Make Good Roommates
TTITLE5=Roll Credits
TTITLE6=Jet Dark A.M.
TTITLE7=Hug Goodnight
EXTD=YEAR: 2005
EXTT0=
EXTT1=
EXTT2=
EXTT3=
EXTT4=
EXTT5=
EXTT6=
EXTT7=
PLAYORDER=
